<svg t="1612315667076" class="icon" viewBox="0 0 1024 1024" version="1.1" xmlns="http://www.w3.org/2000/svg" p-id="4927" width="32" height="32"><path d="M388 96H188c-50.729 0-92 41.271-92 92v200c0 50.729 41.271 92 92 92h200c50.729 0 92-41.271 92-92V188c0-50.729-41.271-92-92-92z m28 292c0 15.439-12.561 28-28 28H188c-15.439 0-28-12.561-28-28V188c0-15.439 12.561-28 28-28h200c15.439 0 28 12.561 28 28v200zM388 544H188c-50.729 0-92 41.271-92 92v200c0 50.729 41.271 92 92 92h200c50.729 0 92-41.271 92-92V636c0-50.729-41.271-92-92-92z m28 292c0 15.439-12.561 28-28 28H188c-15.439 0-28-12.561-28-28V636c0-15.439 12.561-28 28-28h200c15.439 0 28 12.561 28 28v200zM836 96H636c-50.729 0-92 41.271-92 92v200c0 50.729 41.271 92 92 92h200c50.729 0 92-41.271 92-92V188c0-50.729-41.271-92-92-92z m28 292c0 15.439-12.561 28-28 28H636c-15.439 0-28-12.561-28-28V188c0-15.439 12.561-28 28-28h200c15.439 0 28 12.561 28 28v200zM736 544c-105.869 0-192 86.131-192 192s86.131 192 192 192 192-86.131 192-192-86.131-192-192-192z m0 320c-70.579 0-128-57.421-128-128s57.421-128 128-128 128 57.421 128 128-57.421 128-128 128z" p-id="4928" fill="#cdcdcd"></path></svg>